<svg xmlns="http://www.w3.org/2000/svg" viewBox="0.25 0.25 19.5 19.5">
  <rect x="0.25" y="0.25" width="19.5" height="19.5" fill="#e3b85e" stroke="#000" stroke-width="0.025"></rect>
  <path stroke-width="0.025" stroke="#000" d="
    M 0.9875 1 H 19.0125
    M 1 0.9875 V 19.0125
    M 0.9875 2 H 19.0125
    M 2 0.9875 V 19.0125
    M 0.9875 3 H 19.0125
    M 3 0.9875 V 19.0125
    M 0.9875 4 H 19.0125
    M 4 0.9875 V 19.0125
    M 0.9875 5 H 19.0125
    M 5 0.9875 V 19.0125
    M 0.9875 6 H 19.0125
    M 6 0.9875 V 19.0125
    M 0.9875 7 H 19.0125
    M 7 0.9875 V 19.0125
    M 0.9875 8 H 19.0125
    M 8 0.9875 V 19.0125
    M 0.9875 9 H 19.0125
    M 9 0.9875 V 19.0125
    M 0.9875 10 H 19.0125
    M 10 0.9875 V 19.0125
    M 0.9875 11 H 19.0125
    M 11 0.9875 V 19.0125
    M 0.9875 12 H 19.0125
    M 12 0.9875 V 19.0125
    M 0.9875 13 H 19.0125
    M 13 0.9875 V 19.0125
    M 0.9875 14 H 19.0125
    M 14 0.9875 V 19.0125
    M 0.9875 15 H 19.0125
    M 15 0.9875 V 19.0125
    M 0.9875 16 H 19.0125
    M 16 0.9875 V 19.0125
    M 0.9875 17 H 19.0125
    M 17 0.9875 V 19.0125
    M 0.9875 18 H 19.0125
    M 18 0.9875 V 19.0125
    M 0.9875 19 H 19.0125
    M 19 0.9875 V 19.0125
  "></path>
  <circle cx="4" cy="4" r="0.075" fill="#000"></circle>
  <circle cx="10" cy="4" r="0.075" fill="#000"></circle>
  <circle cx="16" cy="4" r="0.075" fill="#000"></circle>
  <circle cx="4" cy="10" r="0.075" fill="#000"></circle>
  <circle cx="10" cy="10" r="0.075" fill="#000"></circle>
  <circle cx="16" cy="10" r="0.075" fill="#000"></circle>
  <circle cx="4" cy="16" r="0.075" fill="#000"></circle>
  <circle cx="10" cy="16" r="0.075" fill="#000"></circle>
  <circle cx="16" cy="16" r="0.075" fill="#000"></circle>
  <circle cx="17" cy="3" r="0.4875" fill="#000" stroke="#000" stroke-width="0.025"></circle>
  <circle cx="3" cy="4" r="0.4875" fill="#fff" stroke="#000" stroke-width="0.025"></circle>
  <circle cx="4" cy="16" r="0.4875" fill="#000" stroke="#000" stroke-width="0.025"></circle>
  <circle cx="16" cy="17" r="0.4875" fill="#fff" stroke="#000" stroke-width="0.025"></circle>
  <circle cx="10" cy="10" r="0.4875" fill="#000" stroke="#000" stroke-width="0.025"></circle>
  <circle cx="16" cy="4" r="0.4875" fill="#fff" stroke="#000" stroke-width="0.025"></circle>
  <circle cx="17" cy="4" r="0.4875" fill="#000" stroke="#000" stroke-width="0.025"></circle>
  <circle cx="16" cy="5" r="0.4875" fill="#fff" stroke="#000" stroke-width="0.025"></circle>
  <circle cx="15" cy="2" r="0.4875" fill="#000" stroke="#000" stroke-width="0.025"></circle>
  <circle cx="17" cy="14" r="0.4875" fill="#fff" stroke="#000" stroke-width="0.025"></circle>
  <circle cx="10" cy="16" r="0.4875" fill="#000" stroke="#000" stroke-width="0.025"></circle>
  <circle cx="12" cy="17" r="0.4875" fill="#fff" stroke="#000" stroke-width="0.025"></circle>
  <circle cx="4" cy="10" r="0.4875" fill="#000" stroke="#000" stroke-width="0.025"></circle>
  <circle cx="5" cy="4" r="0.4875" fill="#fff" stroke="#000" stroke-width="0.025"></circle>
</svg>
